<svg xmlns="http://www.w3.org/2000/svg" role="img" aria-labelledby="title  desc" height="34" width="195"><rect width="100" height="100" fill="none"/><title lang="en-GB">  BBC micro:bit</title><desc lang="en-GB">  BBC micro:bit logo</desc><g class="currentLayer" transform="translate(-0.35013519 1.2540786)"><title>  Layer 1</title><path d="m38.7 20.2c-1.7 0-3-1.4-3-3 0-1.7 1.4-3 3-3 1.7 0 3 1.4 3 3 0 1.7-1.4 3-3 3m-22.3-6.1c-1.7 0-3 1.4-3 3 0 1.7 1.4 3 3 3 1.7 0 3-1.4 3-3 0-1.7-1.4-3-3-3m0-6 22.6 0c5 0 9 4 9 9 0 5-4 9-9 9l-22.6 0c-5 0-9-4.1-9-9 0-5 4.1-9 9-9m22.6 24.1c8.3 0 15-6.7 15-15 0-8.3-6.7-15.1-15-15.1l-22.6 0c-8.3 0-15 6.8-15 15.1 0 8.3 6.8 15 15 15l22.6 0m112.1-22c0-1.5-1.2-2.6-2.7-2.6-1.5 0-2.6 1.2-2.6 2.6 0 1.5 1.2 2.7 2.6 2.7 1.5 0 2.7-1.2 2.7-2.7zm-66.8 5.4c0-4.8-2.9-8.1-7-8.1-2 0-3.8 0.9-5.2 2.5-1.5-1.7-3.2-2.5-5.1-2.5-4.2 0-7.1 3.3-7.1 8.1l0 10.5 3.8 0 0-10.6c0-2.4 1.3-4.1 3.3-4.1 1.6 0 3.3 1.4 3.3 4.1l0 10.6 3.8 0 0-10.6c0-2.4 1.3-4.1 3.3-4.1 1.9 0 3.2 1.7 3.2 4.1l0 10.6 3.8 0 0-10.5zm7-7.6-3.8 0 0 18.1 3.8 0 0-18.1zm0.6-5.1c0-1.4-1.1-2.5-2.5-2.5-1.4 0-2.5 1.1-2.5 2.5 0 1.4 1.1 2.5 2.5 2.5 1.4 0 2.5-1.1 2.5-2.5zm18.3 20.9 0.6-0.5-2.8-2.7-0.5 0.5c-1.3 1.1-2.5 1.7-3.9 1.7-3.1 0-5.6-2.6-5.6-5.7 0-3.1 2.5-5.7 5.6-5.7 1.4 0 2.6 0.5 3.9 1.7l0.5 0.5 2.7-2.8-0.5-0.5c-1.8-1.8-4-2.7-6.7-2.7-2.5 0-4.9 1-6.6 2.8-1.7 1.7-2.7 4.1-2.7 6.7 0 2.6 1 5 2.7 6.7 1.8 1.8 4.1 2.8 6.6 2.8 2.4 0 4.6-0.9 6.7-2.8zm7.3-6.9c0-3.3 1.1-4.7 4.2-5l0.6-0.1 0-3.8-0.8 0.1c-5.6 0.5-8.1 3.2-8.1 9l0 9.1 4.1 0 0-9.3 0 0zm22 6.9c1.8-1.8 2.7-4.1 2.7-6.7 0-2.6-1-5-2.7-6.7-1.8-1.8-4.1-2.8-6.6-2.8-2.5 0-4.8 1-6.6 2.8-1.8 1.8-2.7 4.2-2.7 6.7 0 2.5 1 4.9 2.7 6.7 1.8 1.8 4.1 2.8 6.6 2.8 2.5 0 4.8-1 6.6-2.8zm-1.2-6.7c0 3.2-2.4 5.7-5.4 5.7-2.9 0-5.3-2.5-5.3-5.7 0-3.1 2.4-5.7 5.3-5.7 3 0 5.4 2.6 5.4 5.7zm12.9 6.4c0-1.5-1.2-2.7-2.7-2.7-1.5 0-2.6 1.2-2.6 2.7 0 1.5 1.2 2.6 2.6 2.6 1.5 0 2.7-1.2 2.7-2.6zm19.5 0.3c1.8-1.8 2.7-4.1 2.7-6.7 0-2.5-1-4.9-2.7-6.7-1.7-1.8-4.1-2.8-6.6-2.8-2 0-3.8 0.6-5.5 1.7l0-9.9-3.8 0 0 15.6c0 0.4 0 0.8 0 1.2 0 6.1 3.8 10.4 9.3 10.4 2.5 0 4.8-1 6.6-2.8zm-1-6.7c0 3.1-2.5 5.7-5.6 5.7-3.1 0-5.6-2.5-5.6-5.7 0-3.1 2.5-5.7 5.6-5.7 3.1 0 5.6 2.6 5.6 5.7zm10.9-9.1-3.8 0 0 18.1 3.8 0 0-18.1zm0.6-5.1c0-1.4-1.1-2.5-2.5-2.5-1.4 0-2.5 1.1-2.5 2.5 0 1.4 1.1 2.5 2.5 2.5 1.4 0 2.5-1.1 2.5-2.5zm13.8 19.8-0.6-0.1c-2.9-0.4-4.1-2.1-4.1-5.5l0-5.1 4.8 0 0-3.7-4.8 0 0-4-3.9 0 0 4-1.7 0 0 3.7 1.7 0 0 4.5c0 6.2 2.1 8.9 7.8 10l0.9 0.2 0-4 0 0z" fill="#fff"/></g></svg>