<svg xmlns="http://www.w3.org/2000/svg" role="img" aria-labelledby="title  desc" height="34" width="54"><rect width="100" height="100" fill="none"/><title lang="en-GB">  BBC micro:bit</title><desc lang="en-GB">  BBC micro:bit logo</desc><g class="currentLayer" transform="translate(-0.35013519 1.2540786)"><title>  Layer 1</title><path d="m38.7 20.2c-1.7 0-3-1.4-3-3 0-1.7 1.4-3 3-3 1.7 0 3 1.4 3 3 0 1.7-1.4 3-3 3m-22.3-6.1c-1.7 0-3 1.4-3 3 0 1.7 1.4 3 3 3 1.7 0 3-1.4 3-3 0-1.7-1.4-3-3-3m0-6 22.6 0c5 0 9 4 9 9 0 5-4 9-9 9l-22.6 0c-5 0-9-4.1-9-9 0-5 4.1-9 9-9m22.6 24.1c8.3 0 15-6.7 15-15 0-8.3-6.7-15.1-15-15.1l-22.6 0c-8.3 0-15 6.8-15 15.1 0 8.3 6.8 15 15 15l22.6" fill="#fff"/></g></svg>